Patient4_TMGait_0pt5_01_left_06_EMG.mot
version=1
nRows=20
nColumns=33
inDegrees=no
endheader
time	1LAddLong	2LGlutMax	3LGlutMed	4LIliopsoas	5LSemiMemb	6LBicFemLong	7LRecFem	8LVastMed	9LVastLat	10LGasMed	11LTibAnt	12lTibPost	13LPeroneusLong	14LSol	15LExtDigLong	16LFlexDigLong	17RAddLong	18RGlutMax	19RGlutMed	20RIliopsoas	21RSemiMemb	22RBicFemLong	23RRecFem	24RVastMed	25RVastLat	26RGasMed	27RTibAnt	28RTibPost	29RPeroneusLong	30RSol	31RExtDigLong	32RFlexDigLong
8.98	-0.00473	0.092926	0.006714	0.005035	-0.029297	0.041046	0.067291	0.007782	-0.00885	-0.022125	0.017395	0.40665	-0.052032	0.21255	0.001221	-0.04425	-0.002747	0.021362	-0.50308	-0.050964	-0.029144	0.054779	0.001526	-0.32288	0.00473	-0.004578	0.22812	0.001678	-0.11124	-0.052032	-0.004883	-0.010071
8.981	0.007629	0.080872	0.073395	-0.002136	0.026855	0.061951	0.046539	0.001984	0.000763	-0.01358	0.011597	0.24414	-0.056152	0.21622	0.003204	-0.029602	-0.012817	-0.035858	-0.31845	-0.036926	-0.003662	0.052795	0.005188	-0.26138	-0.067444	-0.003357	0.28778	-0.001526	0.024872	-0.03952	-0.005493	-0.010529
8.982	0.009918	0.11993	0.046692	-0.001221	0.040436	0.086975	0.039825	-0.003052	0.002747	-0.0383	0.010681	0.15396	-0.045624	0.22888	0.003662	-0.019073	-0.014496	-0.12863	-0.07309	-0.031586	0.19028	0.062561	0.000305	-0.13275	-0.1915	0.00061	0.17929	0.000305	0.22293	-0.045624	-0.007172	-0.007172
8.983	0.003357	0.1294	0.094299	-0.010529	0.00946	0.075073	0.041504	0.001678	0.016022	-0.045776	0.010223	0.15472	-0.06073	0.22125	0.001984	-0.027618	0.003052	-0.1355	-0.4628	-0.040894	0.28137	0.030823	0.016632	-0.008087	-0.40756	-0.009613	0.11673	-0.000305	-0.015259	-0.061951	-0.002441	-0.013885
8.984	0.008545	0.1239	0.088806	0.032959	0.010529	0.016327	0.050812	0.003815	0.013428	-0.042114	0.008698	0.19943	-0.035248	0.1918	0.010834	-0.006866	0.002747	-0.1471	-0.56854	-0.085907	0.45471	0.075836	0.008392	-0.022736	-0.34866	-0.01297	0.23438	0.001678	-0.38544	-0.041809	-0.001831	-0.012817
8.985	0.005646	0.10284	0.092316	0.00473	-0.011749	-0.041962	0.052795	0.005798	0.020142	-0.05188	0.006104	0.28885	-0.033875	0.077667	0.010223	-0.020142	-0.008392	-0.14374	-0.53131	-0.11643	0.38055	0.074463	0.037079	-0.043793	-0.25101	-0.011597	0.17609	0.000763	-0.44739	-0.055389	-0.004425	-0.018158
8.986	0.013428	0.073547	0.12207	0.003204	0.008087	0.015106	0.042877	-0.004578	0.031128	0.063324	0.015717	0.3186	-0.056458	0.080261	0.011749	-0.008392	-0.041351	-0.1648	-0.13031	-0.050659	0.024261	0.09491	0.030212	-0.11307	-0.13001	-0.014496	0.24628	0.002289	-1.1546	-0.075836	0.001526	-0.016632
8.987	0.006256	0.07019	0.11124	0.006866	-0.007782	0.048828	0.020142	0.000763	0.026093	0.29739	0.017395	0.35385	-0.065918	0.15503	0.010376	-0.14252	-0.040588	-0.087585	0.075989	0.063629	-0.030212	0.054321	0.053711	-0.03418	-0.068359	-0.007324	0.13855	-0.00061	-0.43076	-0.060425	-0.003052	-0.003204
8.988	0.006256	0.11551	0.12451	0.009918	-0.025024	-0.033264	0.019989	-0.000458	0.019989	0.44815	0.023346	0.34821	-0.06485	0.18082	0.014343	0.12405	-0.018921	-0.16403	-0.18448	0.17685	0.10727	-0.036011	0.18219	-0.048065	-0.03952	-0.003204	-0.28046	0.000305	0.40619	-0.028992	-0.005493	-0.011749
8.989	-0.00473	0.12726	0.13687	-0.000916	-0.09903	-0.041046	0.050812	0.002441	0.012207	0.48477	0.02655	0.31158	-0.038757	0.22446	0.02655	0.10803	0.000763	-0.063171	-0.28244	0.23727	0.10147	0.010986	0.29068	-0.16678	0.30762	0.001526	-0.81818	0.001526	0.52002	-0.081635	-0.003052	-0.009766
8.99	-0.016785	0.10376	0.19684	-0.010529	-0.1831	-0.030823	0.045166	-0.001373	0.02243	0.33066	0.008698	0.3125	-0.012665	0.2565	0.032959	-0.26291	-0.002136	-0.093079	-0.298	0.11231	-0.000763	0.089264	0.30304	-0.085297	0.60196	0.003204	-0.80551	-0.00412	0.16846	-0.14969	-0.00061	-0.007782
8.991	0.009308	0.12878	0.15869	0.013275	-0.12924	-0.059967	0.007935	-0.004272	0.029449	0.075378	0.003357	0.42694	-0.009766	0.2713	0.0177	-0.39856	0.032654	-0.00473	-0.36209	-0.038452	-0.083618	0.10895	0.29251	-0.007477	0.62225	0.003052	-0.4187	-0.002594	0.401	-0.14801	-0.003967	-0.003967
8.992	-0.002747	0.1561	0.15595	0.001526	0.081177	-0.13275	0.030365	-0.005951	0.030975	0.016937	0.011444	0.31509	-0.009155	0.24567	0.016479	0.22568	0.050812	0.022125	-0.34775	-0.085907	-0.08728	0.059204	0.22476	-0.16281	0.46936	-0.003357	-0.1474	-0.000763	0.30502	-0.11169	-0.002747	-0.003815
8.993	-0.006714	0.12039	0.18021	-0.013885	0.11566	-0.091858	0.052185	0.006714	0.00473	0.61554	0.016479	0.22614	0.022125	0.37155	0.019531	0.75653	0.050507	0.080109	-0.27908	-0.078888	-0.2565	0.038452	0.10757	-0.23132	0.27634	-0.004578	-0.11963	-0.004578	0.002289	-0.041351	-0.008545	-0.001526
8.994	-0.003357	0.092316	0.16068	0.011139	0.11902	-0.13458	0.012054	-0.003204	0.015411	0.92529	0.003815	0.044861	0.05188	0.11124	-0.000153	-0.50384	0.091705	0.25726	-0.39734	0.002289	-0.041199	-0.025787	0.19058	-0.29572	0.06958	-0.000916	-0.16037	0.009003	-0.67337	-0.028076	-0.005798	-0.001068
8.995	0.011139	0.078888	0.16068	0.005188	0.091095	-0.10574	0.003357	-0.002136	0.02594	0.38116	-0.002289	0.003204	0.071869	-0.24078	0.001526	-1.1937	0.098724	0.29862	-0.51895	0.097046	0.062408	-0.03067	0.14282	-0.24551	-0.043488	-0.004425	-0.012665	-0.002441	-0.49957	-0.015106	-0.000916	0.001831
8.996	0.004883	0.058594	0.18173	0	0.000916	0.042419	0.024109	0.00061	0.001984	-0.055237	0.002289	0.006866	-0.039978	-0.14099	-0.007324	0.78857	0.079193	-0.042267	-0.1976	0.14114	0.18005	0.018616	0.025482	-0.034027	-0.15945	-0.008087	-0.030975	-0.00061	-0.3186	-0.04425	-0.015106	-0.006714
8.997	-0.00061	0.018005	0.23743	0.003357	-0.001221	0.16113	0.022278	0.00473	-0.002136	-0.345	0.007629	0.12161	-0.10864	-0.074005	-0.024567	1.0684	-0.007477	-0.41412	-0.12116	-0.051117	0.33661	0.077515	-0.059052	0.23377	-0.34897	-0.013275	0.10956	-0.000305	-0.16953	-0.043335	-0.002594	-0.002441
8.998	-0.001373	0.048218	0.27557	0.009918	-0.040894	0.15701	0.001068	0.001221	0.005798	-0.65857	-0.005493	0.33402	-0.11643	-0.20248	-0.024567	0.22171	-0.006409	-0.52216	0.25574	-0.19211	0.103	0.098114	-0.062256	0.30243	-0.48691	-0.008545	-0.010986	0.009155	-0.0177	0.017548	-0.000458	-0.001831
8.999	0.004425	0.063629	0.2713	0.010071	-0.028229	0.050659	-0.002747	0.003967	0.017395	-0.71579	0	-0.44601	-0.1236	-0.065155	-0.02655	-0.081177	-0.001678	-0.43503	0.43198	-0.14542	0.036621	0.031128	0.013123	0.26688	-0.48279	-0.007477	-0.003967	-0.002289	0.42007	0.017242	-0.000763	-0.009003
